<?xml version="1.0" standalone="no"?>
<!DOCTYPE svg PUBLIC "-//W3C//DTD SVG 20010904//EN"
 "http://www.w3.org/TR/2001/REC-SVG-20010904/DTD/svg10.dtd">
<svg version="1.0" xmlns="http://www.w3.org/2000/svg"
 width="6197.000000pt" height="6197.000000pt" viewBox="0 0 6197.000000 6197.000000"
 preserveAspectRatio="xMidYMid meet">
<metadata>
Created by potrace 1.14, written by Peter Selinger 2001-2017
</metadata>
<g transform="translate(0.000000,6197.000000) scale(0.100000,-0.100000)"
fill="#000000" stroke="none">
<path d="M47600 59559 c-4192 -107 -8070 -683 -11790 -1752 -3567 -1026 -6749
-2369 -9485 -4005 -1439 -860 -2943 -1931 -4400 -3131 -2448 -2017 -4698
-4386 -6441 -6781 -268 -368 -605 -862 -794 -1164 -51 -82 -174 -253 -273
-380 -435 -557 -1032 -1562 -1527 -2569 -1618 -3293 -2308 -6944 -2010 -10637
279 -3450 1433 -6762 3360 -9640 396 -591 867 -1222 1131 -1516 133 -147 184
-221 374 -538 713 -1190 1116 -2269 1244 -3336 181 -1501 -234 -2897 -1237
-4159 -1203 -1513 -3266 -2840 -6112 -3931 -2271 -870 -5082 -1596 -8020
-2070 -379 -61 -1146 -171 -1395 -200 -190 -22 -230 -28 -223 -35 10 -10 938
-182 1588 -294 2824 -488 5579 -802 8255 -941 1261 -65 2140 -84 3505 -77
1101 6 1562 18 2460 62 7962 394 15099 2490 21135 6208 4023 2478 7558 5734
9866 9087 74 107 218 299 320 425 989 1229 1921 2757 2599 4265 1370 3045
1964 6356 1745 9715 -273 4176 -1820 8140 -4454 11410 -165 205 -455 549 -624
739 l-114 129 -402 729 c-374 679 -405 740 -457 886 -184 518 -309 1059 -370
1602 -22 197 -30 749 -15 962 137 1871 1221 3537 3251 4997 2211 1590 5585
2928 9750 3866 1235 278 2714 549 3718 681 116 15 212 31 212 34 0 17 -1550
305 -2445 454 -3225 538 -6214 830 -9265 906 -447 11 -2213 11 -2660 -1z
m-15950 -22874 c1818 -158 3458 -1139 4462 -2670 509 -775 830 -1660 932
-2570 52 -462 49 -1003 -9 -1447 -224 -1718 -1182 -3246 -2635 -4204 -857
-565 -1829 -891 -2875 -964 -299 -21 -732 -10 -1055 26 -1856 207 -3513 1289
-4470 2919 -106 181 -291 558 -369 752 -461 1149 -559 2372 -285 3568 338
1480 1248 2788 2524 3630 904 596 1933 928 3035 979 149 7 569 -4 745 -19z"/>
</g>
</svg>
